<?xml version="1.0" encoding="UTF-8" standalone="no"?><!DOCTYPE svg PUBLIC "-//W3C//DTD SVG 1.1//EN" "http://www.w3.org/Graphics/SVG/1.1/DTD/svg11.dtd"><svg width="100%" height="100%" viewBox="0 0 110 110" version="1.1" xmlns="http://www.w3.org/2000/svg" xmlns:xlink="http://www.w3.org/1999/xlink" xml:space="preserve" xmlns:serif="http://www.serif.com/" style="fill-rule:evenodd;clip-rule:evenodd;stroke-linejoin:round;stroke-miterlimit:1.41421;"><g><g><ellipse cx="29.256" cy="19.327" rx="11.463" ry="11.227" style="fill:#ff5a00;"/><path d="M25.365,55.572c-4.706,-1.471 -8.12,-5.806 -8.12,-10.92c0,-6.322 5.219,-11.454 11.646,-11.454c3.63,0 6.874,1.636 9.01,4.199l0.035,-0.048c9.072,10.475 -1.045,39.346 -22.998,51.289l-1.095,-1.095c8.509,-15.299 13.531,-27.13 11.522,-31.971Z" style="fill:#ff5a00;"/></g><g><ellipse cx="56.92" cy="32.589" rx="11.463" ry="11.227" style="fill:#ff5a00;"/><path d="M53.029,68.833c-4.706,-1.47 -8.12,-5.806 -8.12,-10.919c0,-6.322 5.219,-11.455 11.646,-11.455c3.63,0 6.873,1.637 9.01,4.2l0.035,-0.049c9.072,10.476 -1.046,39.347 -22.998,51.289l-1.095,-1.095c8.509,-15.298 13.531,-27.13 11.522,-31.971Z" style="fill:#ff5a00;"/></g><g><ellipse cx="84.156" cy="19.327" rx="11.463" ry="11.227" style="fill:#ff5a00;"/><path d="M80.265,55.572c-4.706,-1.471 -8.12,-5.806 -8.12,-10.92c0,-6.322 5.219,-11.454 11.646,-11.454c3.63,0 6.874,1.636 9.01,4.199l0.035,-0.048c9.072,10.475 -1.046,39.346 -22.998,51.289l-1.095,-1.095c8.509,-15.299 13.531,-27.13 11.522,-31.971Z" style="fill:#ff5a00;"/></g></g></svg>